<?xml version="1.0" standalone="no"?>
<svg xmlns="http://www.w3.org/2000/svg" width="789.4707579872048" height="639.1063272032841" viewBox="0 0 789.4707579872048 639.1063272032841"><path fill="#01427c" fill-rule="nonzero" d="M3.72 25.48L3.72 25.48L3.72 1.88L0.48 1.44Q0.24 0.72 0.48 0L0.48 0L5.96 0.12L22.12 0.12L22.16 9.40Q21.28 9.56 20.68 9.40L20.68 9.40L18.80 2.16L8 2.16L8 14.16L14.40 14.04L15.32 10.12Q15.92 9.96 16.80 10.12L16.80 10.12Q16.64 12.36 16.64 15.28L16.64 15.28Q16.64 17.96 16.76 20.48L16.76 20.48Q16.04 20.72 15.32 20.48L15.32 20.48L14.44 16.32L8 16.20L8 29.92L20 29.92L21.88 22.68Q22.48 22.52 23.36 22.68L23.36 22.68L23.32 31.96L5.96 31.96L0.24 32.08Q0 31.36 0.24 30.64L0.24 30.64L3.56 30.20Q3.72 28.16 3.72 25.48ZM51.68 31.96L33.12 31.96L27.40 32.08Q27.16 31.36 27.40 30.64L27.40 30.64L30.72 30.20Q30.88 28.16 30.88 25.48L30.88 25.48L30.88 1.88L27.64 1.48Q27.48 0.88 27.64 0L27.64 0Q29.84 0.16 33.12 0.16L33.12 0.16Q36.04 0.16 38.64 0.04L38.64 0.04Q38.88 0.76 38.64 1.48L38.64 1.48L35.32 1.96Q35.16 3.48 35.16 6.64L35.16 6.64L35.16 29.92L48.36 29.92L50.24 22.68Q50.84 22.52 51.72 22.68L51.72 22.68L51.68 31.96Z" transform="translate(0 0) scale(5.244)"></path><path fill="#01427c" fill-rule="nonzero" d="M3.72 26.48L3.72 26.48L3.72 2.92L0.48 2.48Q0.24 1.76 0.48 1.04L0.48 1.04L5.96 1.16L22.12 1.16L22.16 10.44Q21.28 10.60 20.68 10.44L20.68 10.44L18.80 3.20L8 3.20L8 15L14.40 14.88L15.32 10.96Q15.92 10.80 16.80 10.96L16.80 10.96Q16.64 13.20 16.64 16.12L16.64 16.12Q16.64 18.80 16.76 21.32L16.76 21.32Q16.04 21.56 15.32 21.32L15.32 21.32L14.44 17.16L8 17.04L8 31.24L11.64 31.64Q11.80 32.24 11.64 33.12L11.64 33.12Q9.12 33 5.96 33L5.96 33Q3.60 33 0.24 33.08L0.24 33.08Q0 32.36 0.24 31.64L0.24 31.64L3.56 31.16Q3.72 29.64 3.72 26.48ZM29.16 21.28L25.60 31.24L28.84 31.64Q29 32.24 28.84 33.12L28.84 33.12Q26.32 33 24.60 33L24.60 33Q23.64 33 20.28 33.08L20.28 33.08Q20.04 32.36 20.28 31.64L20.28 31.64L22.92 31.16Q23.56 30.20 24.52 27.60L24.52 27.60L34.84 0L36.24 0L47.84 31.24L51.08 31.64Q51.24 32.24 51.08 33.12L51.08 33.12Q48.56 33 45.44 33L45.44 33Q43.12 33 39.76 33.08L39.76 33.08Q39.52 32.36 39.76 31.64L39.76 31.64L43.08 31.16L39.56 21.28L29.16 21.28ZM34.48 6.04L34.48 6.04L34.44 6.04Q33.96 7.92 32.88 10.96L32.88 10.96L29.88 19.28L38.84 19.28L35.92 10.96Q35.08 8.52 34.48 6.04ZM52.40 1.04L52.40 1.04Q54.04 1.04 57.62 0.88Q61.20 0.72 64.12 0.72L64.12 0.72Q70.20 0.72 72.80 3.14Q75.40 5.56 75.40 9.88L75.40 9.88Q75.40 12.48 73.60 14.56Q71.80 16.64 68.88 17.68L68.88 17.68Q70.60 20.60 72.10 23.16Q73.60 25.72 74.28 26.96Q74.96 28.20 75.52 29.18Q76.08 30.16 76.34 30.52Q76.60 30.88 76.84 31.12L76.84 31.12L79.72 31.52Q79.88 32.12 79.72 33L79.72 33L72.92 33L66.88 22.04Q65.68 19.76 64.60 18.52L64.60 18.52L64.04 18.52Q62 18.52 59.92 18.28L59.92 18.28L59.92 31.24L63.56 31.64Q63.72 32.24 63.56 33.12L63.56 33.12Q61.04 33 57.88 33L57.88 33Q55.52 33 52.16 33.08L52.16 33.08Q51.92 32.36 52.16 31.64L52.16 31.64L55.48 31.16Q55.64 29.64 55.64 26.48L55.64 26.48L55.64 2.92L52.40 2.52Q52.24 1.92 52.40 1.04ZM59.92 7.68L59.92 7.68L59.92 16.64Q61.16 16.80 63.52 16.80L63.52 16.80Q65.56 16.80 67.02 16.14Q68.48 15.48 69.20 14.38Q69.92 13.28 70.24 12.12Q70.56 10.96 70.56 9.68L70.56 9.68Q70.56 6.24 68.84 4.32Q67.12 2.40 63.12 2.40L63.12 2.40Q61.64 2.40 60.16 2.68L60.16 2.68Q59.92 4.96 59.92 7.68ZM96.80 0.36L96.80 0.36Q100.72 0.36 103.84 1.76Q106.96 3.16 108.88 5.50Q110.80 7.84 111.82 10.70Q112.84 13.56 112.84 16.68L112.84 16.68Q112.84 23.88 108.32 28.84Q103.80 33.80 96.80 33.80L96.80 33.80Q92.92 33.80 89.80 32.40Q86.68 31 84.76 28.66Q82.84 26.32 81.82 23.48Q80.80 20.64 80.80 17.56L80.80 17.56Q80.80 12.96 82.82 9.04Q84.84 5.12 88.54 2.74Q92.24 0.36 96.80 0.36ZM96.76 31.60L96.76 31.60Q100.52 31.60 103.14 29.42Q105.76 27.24 106.90 23.92Q108.04 20.60 108.04 16.52L108.04 16.52Q108.04 12.64 106.90 9.58Q105.76 6.52 103.16 4.54Q100.56 2.56 96.76 2.56L96.76 2.56Q91.28 2.56 88.44 6.56Q85.60 10.56 85.60 16.56L85.60 16.56Q85.60 20.68 86.72 23.98Q87.84 27.28 90.44 29.44Q93.04 31.60 96.76 31.60Z" transform="translate(0 176.209) scale(2.401)"></path><path fill="#01427c" fill-rule="nonzero" d="M0.24 32.44L0.24 32.44Q0 31.72 0.24 31L0.24 31L3.56 30.52Q3.72 29 3.72 25.84L3.72 25.84L3.72 2.28L0.48 1.88Q0.32 1.28 0.48 0.40L0.48 0.40Q1.08 0.44 2.36 0.44L2.36 0.44Q4.92 0.44 8.98 0.22Q13.04 0 13.64 0L13.64 0Q21.48 0 25.52 4.24Q29.56 8.48 29.56 15.64L29.56 15.64Q29.56 22.92 25.76 27.72Q21.96 32.52 15.12 32.52L15.12 32.52Q12.84 32.52 9.08 32.46Q5.32 32.40 3.68 32.40L3.68 32.40Q1.36 32.40 0.24 32.44ZM13.60 30.60L13.60 30.60Q24.88 30.60 24.88 15.88L24.88 15.88Q24.88 9.52 21.94 5.84Q19 2.16 13.48 1.92L13.48 1.92Q13 1.88 12 1.88L12 1.88Q9.88 1.88 8.16 2.20L8.16 2.20Q8 3.72 8 7.04L8 7.04L8 30.48Q8.48 30.48 10.30 30.54Q12.12 30.60 13.60 30.60ZM36.72 25.88L36.72 25.88L36.72 2.28L33.48 1.84Q33.24 1.12 33.48 0.40L33.48 0.40L38.96 0.52L55.12 0.52L55.16 9.80Q54.28 9.96 53.68 9.80L53.68 9.80L51.80 2.56L41 2.56L41 14.56L47.40 14.44L48.32 10.52Q48.92 10.36 49.80 10.52L49.80 10.52Q49.64 12.76 49.64 15.68L49.64 15.68Q49.64 18.36 49.76 20.88L49.76 20.88Q49.04 21.12 48.32 20.88L48.32 20.88L47.44 16.72L41 16.60L41 30.32L53 30.32L54.88 23.08Q55.48 22.92 56.36 23.08L56.36 23.08L56.32 32.36L38.96 32.36L33.24 32.48Q33 31.76 33.24 31.04L33.24 31.04L36.56 30.60Q36.72 28.56 36.72 25.88Z" transform="translate(0 265.339) scale(4.811)"></path><path fill="#01427c" fill-rule="nonzero" d="M24.52 33L5.96 33L0.24 33.12Q0 32.40 0.24 31.68L0.24 31.68L3.56 31.24Q3.72 29.20 3.72 26.52L3.72 26.52L3.72 2.92L0.48 2.52Q0.32 1.92 0.48 1.04L0.48 1.04Q2.68 1.20 5.96 1.20L5.96 1.20Q8.88 1.20 11.48 1.08L11.48 1.08Q11.72 1.80 11.48 2.52L11.48 2.52L8.16 3Q8 4.52 8 7.68L8 7.68L8 30.96L21.20 30.96L23.08 23.72Q23.68 23.56 24.56 23.72L24.56 23.72L24.52 33ZM34 21.28L30.44 31.24L33.68 31.64Q33.84 32.24 33.68 33.12L33.68 33.12Q31.16 33 29.44 33L29.44 33Q28.48 33 25.12 33.08L25.12 33.08Q24.88 32.36 25.12 31.64L25.12 31.64L27.76 31.16Q28.40 30.20 29.36 27.60L29.36 27.60L39.68 0L41.08 0L52.68 31.24L55.92 31.64Q56.08 32.24 55.92 33.12L55.92 33.12Q53.40 33 50.28 33L50.28 33Q47.96 33 44.60 33.08L44.60 33.08Q44.36 32.36 44.60 31.64L44.60 31.64L47.92 31.16L44.40 21.28L34 21.28ZM39.32 6.04L39.32 6.04L39.28 6.04Q38.80 7.92 37.72 10.96L37.72 10.96L34.72 19.28L43.68 19.28L40.76 10.96Q39.92 8.52 39.32 6.04Z" transform="translate(0 429.786) scale(4.842)"></path><path fill="#01427c" fill-rule="nonzero" d="M9.12 21.28L5.56 31.24L8.80 31.64Q8.96 32.24 8.80 33.12L8.80 33.12Q6.28 33 4.56 33L4.56 33Q3.60 33 0.24 33.08L0.24 33.08Q0 32.36 0.24 31.64L0.24 31.64L2.88 31.16Q3.52 30.20 4.48 27.60L4.48 27.60L14.80 0L16.20 0L27.80 31.24L31.04 31.64Q31.20 32.24 31.04 33.12L31.04 33.12Q28.52 33 25.40 33L25.40 33Q23.08 33 19.72 33.08L19.72 33.08Q19.48 32.36 19.72 31.64L19.72 31.64L23.04 31.16L19.52 21.28L9.12 21.28ZM14.44 6.04L14.44 6.04L14.40 6.04Q13.92 7.92 12.84 10.96L12.84 10.96L9.84 19.28L18.80 19.28L15.88 10.96Q15.04 8.52 14.44 6.04ZM56.40 33L37.84 33L32.12 33.12Q31.88 32.40 32.12 31.68L32.12 31.68L35.44 31.24Q35.60 29.20 35.60 26.52L35.60 26.52L35.60 2.92L32.36 2.52Q32.20 1.92 32.36 1.04L32.36 1.04Q34.56 1.20 37.84 1.20L37.84 1.20Q40.76 1.20 43.36 1.08L43.36 1.08Q43.60 1.80 43.36 2.52L43.36 2.52L40.04 3Q39.88 4.52 39.88 7.68L39.88 7.68L39.88 30.96L53.08 30.96L54.96 23.72Q55.56 23.56 56.44 23.72L56.44 23.72L56.40 33ZM62.76 26.52L62.76 26.52L62.76 2.92L59.52 2.48Q59.28 1.76 59.52 1.04L59.52 1.04L65 1.16L81.16 1.16L81.20 10.44Q80.32 10.60 79.72 10.44L79.72 10.44L77.84 3.20L67.04 3.20L67.04 15.20L73.44 15.08L74.36 11.16Q74.96 11 75.84 11.16L75.84 11.16Q75.68 13.40 75.68 16.32L75.68 16.32Q75.68 19 75.80 21.52L75.80 21.52Q75.08 21.76 74.36 21.52L74.36 21.52L73.48 17.36L67.04 17.24L67.04 30.96L79.04 30.96L80.92 23.72Q81.52 23.56 82.40 23.72L82.40 23.72L82.36 33L65 33L59.28 33.12Q59.04 32.40 59.28 31.68L59.28 31.68L62.60 31.24Q62.76 29.20 62.76 26.52ZM94 7.68L94 7.68L94 28.68Q94 34.24 91.80 37.60Q89.60 40.96 86.32 40.96L86.32 40.96Q83.52 40.96 82.26 39.90Q81 38.84 80.96 36.32L80.96 36.32Q81.24 35.24 83.12 35.24L83.12 35.24Q84 35.24 85.08 35.48L85.08 35.48Q85.28 37.80 85.58 38.56Q85.88 39.32 86.68 39.32L86.68 39.32Q88.44 39.32 89.08 37.02Q89.72 34.72 89.72 29.80L89.72 29.80L89.72 2.92L86.08 2.52Q85.92 1.92 86.08 1.04L86.08 1.04Q88.28 1.16 91.04 1.16L91.04 1.16Q94.60 1.16 97.48 1.04L97.48 1.04Q97.72 1.76 97.48 2.48L97.48 2.48L94.16 3Q94 4.52 94 7.68ZM107.12 21.28L103.56 31.24L106.80 31.64Q106.96 32.24 106.80 33.12L106.80 33.12Q104.28 33 102.56 33L102.56 33Q101.60 33 98.24 33.08L98.24 33.08Q98.00 32.36 98.24 31.64L98.24 31.64L100.88 31.16Q101.52 30.20 102.48 27.60L102.48 27.60L112.80 0L114.20 0L125.80 31.24L129.04 31.64Q129.20 32.24 129.04 33.12L129.04 33.12Q126.52 33 123.40 33L123.40 33Q121.08 33 117.72 33.08L117.72 33.08Q117.48 32.36 117.72 31.64L117.72 31.64L121.04 31.16L117.52 21.28L107.12 21.28ZM112.44 6.04L112.44 6.04L112.40 6.04Q111.92 7.92 110.84 10.96L110.84 10.96L107.84 19.28L116.80 19.28L113.88 10.96Q113.04 8.52 112.44 6.04ZM156.16 22.28L156.16 22.28L156.16 7.80Q156.16 4.64 156 3.12L156 3.12L152.28 2.64Q152.04 1.92 152.28 1.20L152.28 1.20Q154.80 1.32 157.16 1.32L157.16 1.32Q159.76 1.32 162 1.16L162 1.16Q162.16 2.04 162 2.64L162 2.64L158.36 3.04L158.36 33L156.24 33L138.60 9.12Q137.36 7.48 135.68 4.84L135.68 4.84Q135.88 6.68 135.88 9.28L135.88 9.28L135.88 26.48Q135.88 29.64 136.04 31.16L136.04 31.16L139.76 31.64Q140 32.36 139.76 33.08L139.76 33.08Q136.32 33 134.88 33L134.88 33Q132.52 33 130.04 33.12L130.04 33.12Q129.88 32.24 130.04 31.64L130.04 31.64L133.68 31.24L133.68 7.68Q133.68 4.52 133.52 3L133.52 3L130.20 2.52Q129.96 1.84 130.20 1.16L130.20 1.16L138.04 1.16L154.08 23Q154.40 23.44 154.78 24.04Q155.16 24.64 155.62 25.48Q156.08 26.32 156.36 26.76L156.36 26.76Q156.16 24.36 156.16 22.28ZM165.32 33.08L165.32 33.08Q165.08 32.36 165.32 31.64L165.32 31.64L168.64 31.16Q168.80 29.64 168.80 26.48L168.80 26.48L168.80 2.92L165.56 2.52Q165.40 1.92 165.56 1.04L165.56 1.04Q166.16 1.08 167.44 1.08L167.44 1.08Q170.00 1.08 174.06 0.86Q178.12 0.64 178.72 0.64L178.72 0.64Q186.56 0.64 190.60 4.88Q194.64 9.12 194.64 16.28L194.64 16.28Q194.64 23.56 190.84 28.36Q187.04 33.16 180.20 33.16L180.20 33.16Q177.92 33.16 174.16 33.10Q170.40 33.04 168.76 33.04L168.76 33.04Q166.44 33.04 165.32 33.08ZM178.68 31.24L178.68 31.24Q189.96 31.24 189.96 16.52L189.96 16.52Q189.96 10.16 187.02 6.48Q184.08 2.80 178.56 2.56L178.56 2.56Q178.08 2.52 177.08 2.52L177.08 2.52Q174.96 2.52 173.24 2.84L173.24 2.84Q173.08 4.36 173.08 7.68L173.08 7.68L173.08 31.12Q173.56 31.12 175.38 31.18Q177.20 31.24 178.68 31.24ZM198.56 1.04L198.56 1.04Q200.20 1.04 203.78 0.88Q207.36 0.72 210.28 0.72L210.28 0.72Q216.36 0.72 218.96 3.14Q221.56 5.56 221.56 9.88L221.56 9.88Q221.56 12.48 219.76 14.56Q217.96 16.64 215.04 17.68L215.04 17.68Q216.76 20.60 218.26 23.16Q219.76 25.72 220.44 26.96Q221.12 28.20 221.68 29.18Q222.24 30.16 222.50 30.52Q222.76 30.88 223.00 31.12L223.00 31.12L225.88 31.52Q226.04 32.12 225.88 33L225.88 33L219.08 33L213.04 22.04Q211.84 19.76 210.76 18.52L210.76 18.52L210.20 18.52Q208.16 18.52 206.08 18.28L206.08 18.28L206.08 31.24L209.72 31.64Q209.88 32.24 209.72 33.12L209.72 33.12Q207.20 33 204.04 33L204.04 33Q201.68 33 198.32 33.08L198.32 33.08Q198.08 32.36 198.32 31.64L198.32 31.64L201.64 31.16Q201.80 29.64 201.80 26.48L201.80 26.48L201.80 2.92L198.56 2.52Q198.40 1.92 198.56 1.04ZM206.08 7.68L206.08 7.68L206.08 16.64Q207.32 16.80 209.68 16.80L209.68 16.80Q211.72 16.80 213.18 16.14Q214.64 15.48 215.36 14.38Q216.08 13.28 216.40 12.12Q216.72 10.96 216.72 9.68L216.72 9.68Q216.72 6.24 215.00 4.32Q213.28 2.40 209.28 2.40L209.28 2.40Q207.80 2.40 206.32 2.68L206.32 2.68Q206.08 4.96 206.08 7.68ZM234.88 7.68L234.88 7.68L234.88 31.24L238.12 31.64Q238.28 32.24 238.12 33.12L238.12 33.12Q235.60 33 232.64 33L232.64 33Q230.48 33 227.12 33.08L227.12 33.08Q226.88 32.36 227.12 31.64L227.12 31.64L230.44 31.16Q230.60 29.64 230.60 26.48L230.60 26.48L230.60 2.92L227.36 2.52Q227.20 1.92 227.36 1.04L227.36 1.04Q229.56 1.20 232.84 1.20L232.84 1.20Q235.76 1.20 238.36 1.08L238.36 1.08Q238.60 1.80 238.36 2.52L238.36 2.52L235.04 3Q234.88 4.52 234.88 7.68ZM248.68 21.28L245.12 31.24L248.36 31.64Q248.52 32.24 248.36 33.12L248.36 33.12Q245.84 33 244.12 33L244.12 33Q243.16 33 239.80 33.08L239.80 33.08Q239.56 32.36 239.80 31.64L239.80 31.64L242.44 31.16Q243.08 30.20 244.04 27.60L244.04 27.60L254.36 0L255.76 0L267.36 31.24L270.60 31.64Q270.76 32.24 270.60 33.12L270.60 33.12Q268.08 33 264.96 33L264.96 33Q262.64 33 259.28 33.08L259.28 33.08Q259.04 32.36 259.28 31.64L259.28 31.64L262.60 31.16L259.08 21.28L248.68 21.28ZM254.00 6.04L254.00 6.04L253.96 6.04Q253.48 7.92 252.40 10.96L252.40 10.96L249.40 19.28L258.36 19.28L255.44 10.96Q254.60 8.52 254.00 6.04Z" transform="translate(0 598.147) scale(1)"></path><g fill="#f29b18" color="#f29b18" transform="translate(285.561 0) scale(12.2905063)"><svg width="41.0" height="52.0" x="0.0" y="0.0" viewBox="0 0 41 52"><g fill="none" fill-rule="evenodd"><path fill="currentColor" d="M33.708 50.177c.078.164.114.349.084.528a.874.874 0 0 1-.863.735H17.843a.637.637 0 0 1-.45-1.087l2.985-2.987c.264-.264.624-.412.997-.412h3.062a1.57 1.57 0 0 0 1.108-.458l3.223-3.223a.819.819 0 0 1 1.318.228l3.622 6.676zm-7.634-13.111l-2.318-13.818h.76c.428 0 .824-.288.9-.709a.872.872 0 0 0-.857-1.033h-.533a.385.385 0 0 1-.385-.385V17.67c0-.176.125-.33.298-.36.405-.068.739-.393.76-.811a.871.871 0 0 0-.87-.918h-.188v-.784a.871.871 0 0 0-.344-.693l-2.614-1.987a.872.872 0 0 0-1.054 0l-2.615 1.987a.871.871 0 0 0-.344.693v.785h-.14c-.409 0-.796.258-.893.656-.132.54.254 1.076.772 1.084.204.003.257.11.261.323v3.477a.384.384 0 0 1-.384.385h-.491c-.427 0-.823.289-.899.71a.872.872 0 0 0 .857 1.032h.803L14.23 37.114a.377.377 0 0 1-.502.292C6.343 34.646 1.187 27.276 1.79 18.813c.643-9.008 7.864-16.295 16.867-17.01C29.483.94 38.569 9.507 38.569 20.155c0 7.795-4.871 14.47-11.728 17.152-.058.024-.1.048-.176.068-.252.068-.485.02-.591-.31zm-3.86-9.822a.278.278 0 0 1 .47.15l.434 2.592a1.12 1.12 0 0 1-.312.977l-6.109 6.109a.377.377 0 0 1-.638-.33l.58-3.457a1.78 1.78 0 0 1 .497-.964l5.077-5.077zm-3.302-3.996h2.679a.47.47 0 0 1 .463.392l.111.66a.885.885 0 0 1-.248.775l-4.028 4.028a.298.298 0 0 1-.505-.26l.841-5.014a.696.696 0 0 1 .687-.58zm-.5-7.667v-.163c0-.119.056-.231.151-.302L20.03 14a.207.207 0 0 1 .251 0l1.467 1.115a.38.38 0 0 1 .15.302v.163h-3.485zm.49 1.743h2.508c.27 0 .488.218.488.489v3.204c0 .27-.218.489-.488.489h-2.508a.489.489 0 0 1-.49-.49v-3.203c0-.27.22-.49.49-.49zM15.28 41.382c.056-.336.216-.645.456-.886l7.206-7.206a.455.455 0 0 1 .77.247l.605 3.605a.624.624 0 0 1-.178.549l-.04.039-1.255 1.255a.07.07 0 0 1-.12-.05v-.885c0-.428-.288-.824-.709-.899a.872.872 0 0 0-1.033.857v2.666c0 .154-.116.334-.316.334h-3.483c-.42 0-.823.167-1.121.465l-.736.736c-.07.069-.187.008-.17-.088l.124-.739zM19.054.03C8.947.57.725 8.672.046 18.771-.57 27.94 4.988 35.92 12.964 38.977c.52.2.83.735.738 1.284l-.578 3.448a2.682 2.682 0 0 1-.748 1.452l-4.792 4.791a.877.877 0 0 0 .047 1.28.87.87 0 0 0 .586.208h5.011c.682 0 1.337-.271 1.82-.754l4.971-4.972c.322-.322.76-.502 1.215-.502h2.75c.533 0 1.045-.213 1.423-.59l3.333-3.333c.304-.304.385-.768.199-1.157l-.517-1.089a.464.464 0 0 1 .227-.619c6.88-3.21 11.664-10.188 11.664-18.268C40.312 8.676 30.666-.59 19.054.03z"></path></g></svg></g></svg>